<svg xmlns="http://www.w3.org/2000/svg" xmlns:xlink="http://www.w3.org/1999/xlink" fill="none" version="1.1" width="38.97937774658203" height="37" viewBox="0 0 38.97937774658203 37"><defs><clipPath id="master_svg0_27_39"><rect x="0" y="0" width="38.97937774658203" height="37" rx="0"/></clipPath></defs><g clip-path="url(#master_svg0_27_39)"><g><path d="M4.5889962421875,28.319148681640623L4.5888802421875,28.318548681640625Q4.0125732421875,25.240248681640626,4.0125732421875,20.041648681640623Q4.0125732421875,13.290688681640624,9.0351832421875,8.523128681640625Q14.0413732421875,3.771151531660625,21.1137732421875,3.771151531660625Q22.1591732421875,3.771151531660625,24.2776732421875,4.075568681640625Q25.6939732421875,4.279103681640625,26.4740732421875,4.353150681640625Q30.1019732421875,4.697514681640625,33.9070732421875,3.794534881640625C34.128873242187495,3.741900881640625,34.3626732421875,3.778917971640625,34.556973242187496,3.897442681640625C34.7512732421875,4.015966681640625,34.890273242187504,4.206289681640625,34.9432732421875,4.426541681640625C34.9588732421875,4.491550681640625,34.9667732421875,4.558158681640625,34.9667732421875,4.624997681640625L34.9667732421875,7.708328681640625Q34.9667732421875,18.685948681640625,29.0095732421875,24.666048681640625Q23.5511732421875,30.145548681640626,14.6172732421875,30.145548681640626C14.1423732421875,30.145548681640626,13.7574232421875,29.763248681640626,13.7574232421875,29.291648681640623C13.7574232421875,29.065248681640625,13.8480132421875,28.848048681640623,14.0092632421875,28.687948681640624C14.1704732421875,28.527748681640624,14.3891732421875,28.437848681640624,14.6172732421875,28.437848681640624L14.6191732421875,28.437848681640624Q22.8339732421875,28.437248681640625,27.7869732421875,23.465148681640624Q33.2470732421875,17.983948681640626,33.2470732421875,7.708328681640625L33.2470732421875,5.684928681640625Q29.7141732421875,6.376178681640625,26.3104732421875,6.053098681640625Q25.4889732421875,5.975108681640625,24.0313732421875,5.765658681640625Q22.0354732421875,5.478848681640625,21.1137732421875,5.478848681640625Q14.7310732421875,5.478848681640625,10.2234532421875,9.757568681640624Q5.7322532421875,14.020748681640624,5.7322532421875,20.041648681640623Q5.7322532421875,25.083448681640625,6.2797132421874995,28.007048681640626C6.2893532421875005,28.058548681640627,6.2942032421875,28.110848681640626,6.2942032421875,28.163148681640624C6.2942032421875,28.634748681640627,5.9092432421875,29.017048681640624,5.4343632421875,29.017048681640624C5.0201132421875005,29.017048681640624,4.6647472421875005,28.723648681640626,4.5889962421875,28.319148681640623ZM19.0583732421875,16.452648681640625C19.0583732421875,16.759648681640627,18.8923732421875,17.043048681640627,18.6235732421875,17.194848681640625L18.6221732421875,17.195648681640627Q9.1811332421875,22.528648681640625,8.9853732421875,33.35344868164063L8.9805632421875,33.91664868164062L8.980503242187499,33.923948681640624C8.976503242187501,34.39264868164062,8.5927232421875,34.770548681640626,8.1206932421875,34.770548681640626C7.6458132421875,34.770548681640626,7.260853242187499,34.388248681640626,7.260853242187499,33.91664868164062L7.2608832421875,33.909448681640626L7.2657532421875,33.33904868164063Q7.4793332421875,21.524448681640624,17.7733732421875,15.710448681640624C17.9029732421875,15.637248681640624,18.0494732421875,15.598848681640625,18.1984732421875,15.598848681640625C18.673373242187502,15.598848681640625,19.0583732421875,15.981148681640626,19.0583732421875,16.452648681640625Z" fill-rule="evenodd" fill="#40A8C4" fill-opacity="1"/></g></g></svg>